<?xml version="1.0" standalone="no"?>
<!DOCTYPE svg PUBLIC "-//W3C//DTD SVG 20010904//EN"
 "http://www.w3.org/TR/2001/REC-SVG-20010904/DTD/svg10.dtd">
<svg version="1.0" xmlns="http://www.w3.org/2000/svg"
 width="640.000000pt" height="160.000000pt" viewBox="0 0 640.000000 160.000000"
 preserveAspectRatio="xMidYMid meet">
<metadata>
Created by potrace 1.15, written by Peter Selinger 2001-2017
</metadata>
<g transform="translate(0.000000,160.000000) scale(0.100000,-0.100000)"
fill="#000000" stroke="none">
<path d="M4209 1343 c-100 -94 -155 -256 -168 -503 -5 -85 -14 -169 -21 -187
-8 -23 -8 -37 -1 -52 6 -11 11 -29 11 -41 0 -35 41 -46 96 -25 43 16 48 16 84
0 46 -21 138 -17 186 7 31 15 32 15 43 -8 15 -34 62 -32 122 7 l48 31 33 -25
c50 -39 78 -42 138 -16 51 22 54 22 100 6 58 -21 110 -21 170 -3 39 12 49 12
65 0 22 -16 112 -19 149 -4 18 7 35 5 60 -5 37 -16 121 -20 175 -9 22 5 31 12
31 26 0 18 -5 19 -50 13 -76 -10 -100 9 -100 80 0 75 -20 95 -95 95 -92 0
-164 -41 -185 -105 -9 -27 -18 -35 -55 -44 -51 -13 -79 -5 -114 33 -32 34 -44
33 -107 -10 -61 -42 -87 -40 -100 9 -14 48 -55 48 -123 3 -29 -20 -56 -36 -60
-36 -4 0 -13 12 -20 26 -11 25 -15 26 -68 21 -61 -6 -88 -22 -63 -37 11 -7 7
-12 -22 -25 -66 -27 -91 -17 -107 42 -7 24 -13 28 -40 26 -17 0 -47 -13 -66
-28 l-35 -26 0 54 c0 47 4 57 24 70 43 29 145 128 181 177 79 108 135 254 135
352 0 116 -37 158 -138 158 -61 0 -64 -1 -113 -47z m163 -23 c46 -92 -5 -287
-112 -426 -63 -82 -130 -154 -144 -154 -11 0 -1 161 18 267 8 43 29 119 47
168 26 72 42 100 80 138 57 58 85 60 111 7z"/>
<path d="M2584 1297 c-111 -121 -183 -366 -172 -581 l4 -84 -56 5 c-83 8 -160
-34 -160 -88 0 -48 54 -61 157 -39 38 9 62 7 108 -5 77 -20 189 -19 270 1 53
13 65 20 65 36 0 15 -4 18 -17 13 -52 -20 -152 -36 -188 -30 -35 5 -85 37 -85
55 0 3 19 30 41 60 108 142 227 514 205 635 -10 50 -38 75 -85 75 -34 0 -45
-6 -87 -53z m106 -66 c0 -139 -76 -394 -154 -515 -52 -81 -60 -75 -51 42 17
236 75 441 151 531 38 45 54 28 54 -58z"/>
<path d="M1582 1175 c-106 -57 -166 -104 -332 -260 -272 -256 -344 -314 -476
-382 -114 -59 -221 -95 -283 -97 -58 -1 -80 -18 -67 -51 15 -41 262 13 396 87
87 48 175 124 318 276 154 163 313 307 413 375 39 26 74 47 78 47 5 0 4 -19
-1 -42 -5 -24 -11 -143 -15 -265 l-6 -221 -81 -7 c-44 -4 -91 -11 -103 -16
-35 -13 -28 -44 15 -70 64 -39 119 -88 163 -145 31 -40 48 -54 63 -52 20 3 21
9 19 88 -1 47 -5 105 -8 131 l-5 45 57 15 c83 21 85 44 3 35 l-63 -7 6 183 c4
119 13 215 26 273 10 50 17 93 14 98 -10 16 -53 4 -131 -38z"/>
<path d="M1951 1202 c-5 -10 -28 -65 -51 -122 -22 -58 -47 -120 -55 -138 -23
-51 -20 -72 11 -72 22 0 25 -4 21 -22 -15 -59 -29 -250 -23 -310 12 -129 54
-188 136 -188 32 0 48 6 70 28 43 44 62 130 40 186 -8 22 -16 26 -48 26 -32 0
-41 -5 -50 -25 -17 -37 -15 -42 16 -57 47 -23 38 -88 -13 -88 -30 0 -51 26
-66 81 -16 59 -4 197 41 481 18 114 30 214 27 222 -9 22 -44 20 -56 -2z"/>
<path d="M3670 708 c-54 -28 -80 -62 -87 -115 -4 -34 -2 -43 18 -57 26 -18
112 -22 153 -6 18 7 35 5 60 -5 37 -16 121 -20 175 -9 22 5 31 12 31 26 0 18
-5 19 -50 13 -76 -10 -100 9 -100 80 0 76 -20 95 -98 95 -40 0 -71 -7 -102
-22z"/>
<path d="M3294 675 c-17 -41 -18 -69 -4 -95 9 -17 18 -19 56 -13 l45 6 -7 -40
c-6 -40 6 -80 30 -95 20 -14 63 -8 79 10 22 24 21 42 -2 42 -30 0 -40 21 -43
90 l-3 65 -45 0 c-43 0 -45 1 -48 33 -5 46 -38 44 -58 -3z"/>
<path d="M2842 673 c-20 -17 -20 -19 -4 -53 32 -65 118 -98 187 -71 13 5 31 3
49 -6 32 -17 111 -14 160 6 47 19 19 34 -40 21 -70 -16 -91 -8 -104 40 -13 49
-33 52 -90 14 -48 -32 -70 -21 -70 32 0 32 -2 34 -34 34 -19 0 -43 -8 -54 -17z"/>
<path d="M5497 664 c-9 -9 12 -34 28 -34 15 0 25 -22 25 -54 0 -12 5 -27 12
-34 17 -17 85 -15 118 5 26 15 31 15 69 0 46 -19 128 -22 181 -7 49 14 67 27
55 39 -7 7 -28 5 -63 -5 -73 -22 -99 -14 -112 36 -10 36 -14 40 -44 40 -22 0
-46 -10 -72 -31 l-39 -31 -11 39 -11 38 -64 3 c-36 2 -68 0 -72 -4z"/>
</g>
</svg>
